HIERARCHY
ROOT root
{
	OFFSET	0	13.1	24.9
	CHANNELS 6  Xposition Yposition Zposition Xrotation Yrotation Zrotation
	JOINT spine_1
	{
		OFFSET	0	9.99999	0
		CHANNELS 3  Xrotation Yrotation Zrotation
		JOINT spine_2
		{
			OFFSET	0	112	-10
			CHANNELS 3  Xrotation Yrotation Zrotation
			JOINT spine_3
			{
				OFFSET	0	206.5	19.3
				CHANNELS 3  Xrotation Yrotation Zrotation
				JOINT spine_4
				{
					OFFSET	0	110.4	14.6
					CHANNELS 3  Xrotation Yrotation Zrotation
					JOINT neck_1
					{
						OFFSET	0	71.8	-50.3
						CHANNELS 3  Xrotation Yrotation Zrotation
						JOINT neck_2
						{
							OFFSET	0	86.2	-25.8
							CHANNELS 3  Xrotation Yrotation Zrotation
							JOINT head_ee
							{
								OFFSET	0	179.8	-8.7
								CHANNELS 3  Xrotation Yrotation Zrotation
								End Site
								{
									OFFSET	1	0	0
								}
							}
						}
					}
					JOINT left_clavicle
					{
						OFFSET	-43.2	22.4	-70.8
						CHANNELS 3  Xrotation Yrotation Zrotation
						JOINT left_shoulder
						{
							OFFSET	-93.9	-5.79999	48.7
							CHANNELS 3  Xrotation Yrotation Zrotation
							JOINT left_elbow
							{
								OFFSET	-291.4	-30.8	15.2
								CHANNELS 3  Xrotation Yrotation Zrotation
								JOINT left_lowarm_twist
								{
									OFFSET	-110.7	-3.89999	13.6
									CHANNELS 3  Xrotation Yrotation Zrotation
									JOINT left_hand
									{
										OFFSET	-110.7	-3.89999	13.6
										CHANNELS 3  Xrotation Yrotation Zrotation
										JOINT left_ee
										{
											OFFSET	-80.8	-5.10001	12.1
											CHANNELS 3  Xrotation Yrotation Zrotation
											End Site
											{
												OFFSET	1	0	0
											}
										}
									}
								}
							}
						}
					}
					JOINT right_clavicle
					{
						OFFSET	43.2	22.4	-70.8
						CHANNELS 3  Xrotation Yrotation Zrotation
						JOINT right_shoulder
						{
							OFFSET	93.9	-5.79999	48.7
							CHANNELS 3  Xrotation Yrotation Zrotation
							JOINT right_elbow
							{
								OFFSET	291.4	-30.8	15.2
								CHANNELS 3  Xrotation Yrotation Zrotation
								JOINT right_lowarm_twist
								{
									OFFSET	110.7	-3.89999	13.6
									CHANNELS 3  Xrotation Yrotation Zrotation
									JOINT right_hand
									{
										OFFSET	110.7	-3.89999	13.6
										CHANNELS 3  Xrotation Yrotation Zrotation
										JOINT right_ee
										{
											OFFSET	80.8	-5.10001	12.1
											CHANNELS 3  Xrotation Yrotation Zrotation
											End Site
											{
												OFFSET	1	0	0
											}
										}
									}
								}
							}
						}
					}
				}
			}
		}
	}
	JOINT left_hip
	{
		OFFSET	-82.8	-127.5	0.300001
		CHANNELS 3  Xrotation Yrotation Zrotation
		JOINT left_knee
		{
			OFFSET	-28.2	-396.7	2.2
			CHANNELS 3  Xrotation Yrotation Zrotation
			JOINT left_ankle
			{
				OFFSET	-11.7	-411.3	35.4
				CHANNELS 3  Xrotation Yrotation Zrotation
				JOINT left_toes
				{
					OFFSET	0	-60	-88.6
					CHANNELS 3  Xrotation Yrotation Zrotation
					JOINT left_foot_ee
					{
						OFFSET	-22.5	-16.5	-42.2
						CHANNELS 3  Xrotation Yrotation Zrotation
						End Site
						{
							OFFSET	1	0	0
						}
					}
				}
			}
		}
	}
	JOINT right_hip
	{
		OFFSET	82.8	-127.5	0.300001
		CHANNELS 3  Xrotation Yrotation Zrotation
		JOINT right_knee
		{
			OFFSET	28.2	-396.7	2.2
			CHANNELS 3  Xrotation Yrotation Zrotation
			JOINT right_ankle
			{
				OFFSET	11.7	-411.3	35.4
				CHANNELS 3  Xrotation Yrotation Zrotation
				JOINT right_toes
				{
					OFFSET	0	-60	-88.6
					CHANNELS 3  Xrotation Yrotation Zrotation
					JOINT right_foot_ee
					{
						OFFSET	22.5	-16.5	-42.2
						CHANNELS 3  Xrotation Yrotation Zrotation
						End Site
						{
							OFFSET	1	0	0
						}
					}
				}
			}
		}
	}
}
MOTION
Frames: 9
Frame Time: 0.02
2069.0 684.891 -686.195 -160.713 -45.4722 -171.67 4.65662 -0.107733 0.935806 4.65709 -0.16706 0.927055 4.65403 -0.286332 0.897418 4.65294 -0.141014 0.931372 -7.82423 16.7709 2.9306 -7.89869 29.2821 6.58994 -0.0 0.0 -0.0 1.39358 11.109 3.67911 -4.40024 -26.967 66.2673 1.46844 -36.0308 0.477585 -70.0191 -6.54846 5.30243 -7.34282 24.7551 -34.1726 -0.0 0.0 -0.0 8.01509 17.0266 -15.2113 -21.7564 5.03167 -74.4183 0.324094 9.121 -0.0258512 72.4748 3.00113 8.12999 0.203798 22.9644 8.40467 0.0 0.0 0.0 7.13646 4.68772 18.4679 -14.2131 0.319679 2.15216 40.754 24.1244 -5.21145 -8.16339 0.0 0.0 -0.0 0.0 -0.0 46.838 19.6064 -6.57309 -9.6548 -0.275526 -1.45434 -6.27618 -0.294307 -0.940262 0.621436 -0.0 -0.0 0.0 0.0 0.0 
2096.83 685.742 -669.812 -161.428 -45.5704 -172.145 4.59886 -0.149251 0.926358 4.59932 -0.207893 0.914985 4.59566 -0.326146 0.879801 4.59463 -0.183111 0.920264 -7.41394 16.6668 4.25875 -7.42186 28.0688 7.76185 -0.0 0.0 -0.0 1.09994 11.778 3.24111 -6.03255 -26.1652 67.8826 1.28087 -32.3938 0.372065 -70.8066 -6.64901 5.30877 -7.26705 24.6045 -33.7827 -0.0 0.0 -0.0 7.50227 12.3218 -14.3572 -20.9912 6.76357 -74.0696 0.373403 10.4799 -0.0342451 71.6781 2.91633 8.07288 0.471177 25.0184 7.52252 0.0 0.0 0.0 4.89527 6.35025 18.0721 -15.0574 0.321757 2.2817 36.9802 22.3584 -4.79511 -6.80244 0.0 0.0 -0.0 0.0 -0.0 46.5903 20.0017 -7.00191 -12.6969 -0.311158 -1.91971 -9.0072 2.37039 -1.36629 -0.558076 0.0 0.0 0.0 0.0 0.0 
2113.77 685.833 -663.645 -162.58 -45.3455 -173.151 4.21175 -0.169371 0.971004 4.21224 -0.230813 0.958261 4.20806 -0.360765 0.917275 4.20695 -0.211378 0.962734 -9.31279 16.5082 4.14983 -9.49004 28.2228 8.09196 -0.0 0.0 -0.0 0.904133 8.48926 2.59557 -7.85547 -25.9099 69.3694 1.22835 -31.3188 0.344346 -70.4245 -6.60021 5.30587 -7.00246 24.7367 -31.7864 -0.0 0.0 -0.0 7.29511 12.1285 -13.9221 -20.3351 7.93518 -74.3865 0.440333 12.3053 -0.0474675 72.6039 3.01494 8.13914 0.226248 23.0698 8.30103 0.0 0.0 0.0 2.9017 7.71691 18.5207 -14.086 0.319202 2.13268 36.1001 24.3679 -4.75936 -5.51383 0.0 0.0 -0.0 0.0 -0.0 46.5233 19.9281 -6.84038 -15.9355 -0.321894 -2.41642 -7.6684 4.18778 -1.16857 0.726763 -0.0 -0.0 0.0 0.0 0.0 
2141.45 684.735 -648.618 -163.341 -45.0378 -174.049 4.24185 -0.127136 0.918242 4.2423 -0.185306 0.908293 4.23907 -0.308321 0.874229 4.23804 -0.166389 0.911947 -9.0605 16.6266 2.63093 -9.26186 29.4355 6.59525 -0.0 0.0 -0.0 1.00708 10.2586 2.94364 -9.62264 -24.7065 70.7084 1.176 -30.2221 0.317563 -71.2411 -6.7045 5.31167 -6.96162 25.9122 -30.3701 -0.0 0.0 -0.0 6.41308 7.07453 -12.27 -18.6799 8.46824 -73.6726 0.570251 15.7744 -0.0789995 71.6328 2.91153 8.06959 0.189387 23.9134 8.90046 0.0 0.0 0.0 3.2 8.47964 18.0371 -18.3377 0.311718 2.78483 34.1406 23.9557 -4.5419 -3.91349 0.0 0.0 -0.0 0.0 -0.0 46.8906 21.124 -7.65071 -21.2075 -0.279332 -3.22392 -5.19872 6.11002 -0.7952 -0.640057 0.0 0.0 0.0 0.0 0.0 
2155.88 689.459 -639.653 -164.217 -44.9522 -174.045 4.03522 -0.1321 0.561549 4.03538 -0.167565 0.552005 4.03367 -0.243671 0.522889 4.03332 -0.158034 0.554809 -11.0671 17.1695 3.80816 -11.468 30.0224 8.43448 -0.0 0.0 -0.0 0.906976 8.41988 2.5938 -11.6725 -23.2018 72.6474 1.09519 -28.4802 0.277949 -71.7346 -6.76756 5.31445 -7.06877 24.5968 -32.3858 -0.0 0.0 -0.0 6.35288 4.93198 -12.2155 -15.6822 9.77314 -72.2391 0.682658 18.684 -0.112305 70.3853 2.78045 7.97771 0.111526 23.6154 9.28826 0.0 0.0 0.0 4.25074 8.19556 16.7131 -20.3015 0.291933 3.08547 31.8315 24.9122 -4.31361 -2.30803 0.0 0.0 -0.0 0.0 -0.0 46.1555 23.5591 -8.0994 -22.4026 -0.259367 -3.40621 -3.60915 8.50541 -0.556836 0.332095 -0.0 -0.0 0.0 0.0 0.0 
2177.77 697.848 -625.401 -164.808 -45.4861 -175.059 4.05279 0.00426787 0.914965 4.05325 -0.0539599 0.913383 4.05211 -0.181831 0.896727 4.05099 -0.0379342 0.914189 -12.9749 16.8767 4.56477 -13.5244 29.3062 9.59565 -0.0 0.0 -0.0 1.22311 6.96308 3.01688 -13.8161 -22.4602 73.1893 0.87617 -23.462 0.181944 -70.5335 -6.61413 5.30673 -7.09718 24.8533 -32.3327 -0.0 0.0 -0.0 6.82738 2.45542 -13.2314 -11.4909 9.79819 -72.3243 0.763388 20.7146 -0.139522 70.3649 2.77832 7.97619 -0.11403 22.2749 10.2225 0.0 0.0 0.0 5.08266 10.423 16.1184 -22.4065 0.259295 3.40681 28.049 25.5571 -3.89148 -2.31558 0.0 0.0 -0.0 0.0 -0.0 46.0097 22.2471 -7.22542 -26.1694 -0.171625 -3.9775 -7.472 11.6669 -1.18345 -1.29762 0.0 0.0 0.0 0.0 0.0 
2192.9 703.255 -614.873 -164.855 -45.4813 -175.238 3.97412 0.0689771 1.02773 3.97471 0.00344384 1.03003 3.97443 -0.142776 1.0201 3.97298 0.0201127 1.02984 -14.2935 17.1946 5.35468 -14.9723 29.6554 10.8259 -0.0 0.0 -0.0 2.11449 5.92852 4.53765 -14.9583 -21.9374 74.046 0.632237 -17.3902 0.0966916 -70.4801 -6.60731 5.30631 -7.09676 25.4443 -31.7474 -0.0 0.0 -0.0 7.06496 0.0354448 -13.721 -9.25931 9.71255 -72.5258 0.820925 22.1296 -0.160538 71.0201 2.8469 8.02482 -0.2595 20.9012 10.622 0.0 0.0 0.0 6.1161 11.0539 15.4592 -23.7886 0.231454 3.61706 25.1073 25.5204 -3.53219 -2.02801 0.0 0.0 -0.0 0.0 -0.0 45.3529 22.8401 -7.1807 -26.6069 -0.159002 -4.04347 -5.83594 14.3428 -0.938771 -1.7691 0.0 0.0 0.0 0.0 0.0 
2210.84 701.009 -613.976 -166.659 -45.1156 -177.63 3.70396 0.274704 1.01841 3.70451 0.209347 1.03382 3.70802 0.0556425 1.05333 3.70654 0.22129 1.03133 -15.3106 18.7391 5.68618 -16.2966 32.5991 12.0765 -0.0 0.0 -0.0 2.37231 6.68783 5.05767 -15.3069 -21.5153 75.4292 0.517058 -14.3668 0.0651679 -69.5042 -6.48276 5.29753 -6.35461 25.369 -26.8568 -0.0 0.0 -0.0 5.36357 -2.55451 -10.4289 -7.78545 10.2885 -73.6314 0.978638 25.8631 -0.22471 71.8061 2.9299 8.08213 -0.669553 18.3742 12.3409 0.0 0.0 0.0 7.81713 14.6882 15.0628 -29.7623 0.0530958 4.51609 23.593 21.7936 -3.2772 -0.170674 0.0 0.0 -0.0 0.0 -0.0 42.1378 20.3969 -5.03792 -26.354 -0.166361 -4.00534 1.27462 13.2751 0.200042 -1.63188 0.0 0.0 0.0 0.0 0.0 
2225.69 702.754 -596.507 -170.089 -49.5865 -179.692 2.99752 0.351849 0.881681 2.99791 0.295034 0.902281 3.00247 0.14815 0.937658 3.00136 0.29437 0.902498 -17.3513 18.0577 7.80944 -18.3152 30.4542 14.356 -0.0 0.0 -0.0 5.0696 -3.35016 9.67321 -27.4021 -24.8013 72.5948 0.842058 -22.6423 0.168586 -21.1974 -1.20759 2.41104 -6.80574 16.08 -38.5217 -0.0 0.0 -0.0 4.56464 -11.0527 -9.09241 -9.93831 55.0145 -66.9299 0.59794 16.4995 -0.0866954 34.6531 0.100745 4.35882 -1.21217 -0.556172 7.8732 0.0 0.0 0.0 4.9472 16.4339 12.7117 -30.0072 0.0437907 4.55251 8.38303 20.1553 -1.22557 36.7909 -0.0 -0.0 -0.0 0.0 -0.0 40.0362 38.6992 -9.60569 -28.0935 -0.112353 -4.26684 19.1281 25.0578 3.09848 -11.6579 0.0 0.0 0.0 0.0 0.0 
